<svg width="24" height="26" viewBox="0 0 24 26" fill="none" xmlns="http://www.w3.org/2000/svg">
<g filter="url(#filter0_d_861_1078)">
<path d="M5.33333 10.8333H10.3333C10.5543 10.8333 10.7663 10.7455 10.9226 10.5893C11.0789 10.433 11.1667 10.221 11.1667 10V3.33333C11.1667 3.11232 11.0789 2.90036 10.9226 2.74408C10.7663 2.5878 10.5543 2.5 10.3333 2.5H5.33333C5.11232 2.5 4.90036 2.5878 4.74408 2.74408C4.5878 2.90036 4.5 3.11232 4.5 3.33333V10C4.5 10.221 4.5878 10.433 4.74408 10.5893C4.90036 10.7455 5.11232 10.8333 5.33333 10.8333ZM4.5 16.6667C4.5 16.8877 4.5878 17.0996 4.74408 17.2559C4.90036 17.4122 5.11232 17.5 5.33333 17.5H10.3333C10.5543 17.5 10.7663 17.4122 10.9226 17.2559C11.0789 17.0996 11.1667 16.8877 11.1667 16.6667V13.3333C11.1667 13.1123 11.0789 12.9004 10.9226 12.7441C10.7663 12.5878 10.5543 12.5 10.3333 12.5H5.33333C5.11232 12.5 4.90036 12.5878 4.74408 12.7441C4.5878 12.9004 4.5 13.1123 4.5 13.3333V16.6667ZM12.8333 16.6667C12.8333 16.8877 12.9211 17.0996 13.0774 17.2559C13.2337 17.4122 13.4457 17.5 13.6667 17.5H18.6667C18.8877 17.5 19.0996 17.4122 19.2559 17.2559C19.4122 17.0996 19.5 16.8877 19.5 16.6667V10.8333C19.5 10.6123 19.4122 10.4004 19.2559 10.2441C19.0996 10.0878 18.8877 10 18.6667 10H13.6667C13.4457 10 13.2337 10.0878 13.0774 10.2441C12.9211 10.4004 12.8333 10.6123 12.8333 10.8333V16.6667ZM13.6667 8.33333H18.6667C18.8877 8.33333 19.0996 8.24554 19.2559 8.08926C19.4122 7.93298 19.5 7.72101 19.5 7.5V3.33333C19.5 3.11232 19.4122 2.90036 19.2559 2.74408C19.0996 2.5878 18.8877 2.5 18.6667 2.5H13.6667C13.4457 2.5 13.2337 2.5878 13.0774 2.74408C12.9211 2.90036 12.8333 3.11232 12.8333 3.33333V7.5C12.8333 7.72101 12.9211 7.93298 13.0774 8.08926C13.2337 8.24554 13.4457 8.33333 13.6667 8.33333Z" fill="#404040"/>
</g>
<defs>
<filter id="filter0_d_861_1078" x="-2" y="0" width="28" height="28" filterUnits="userSpaceOnUse" color-interpolation-filters="sRGB">
<feFlood flood-opacity="0" result="BackgroundImageFix"/>
<feColorMatrix in="SourceAlpha" type="matrix" values="0 0 0 0 0 0 0 0 0 0 0 0 0 0 0 0 0 0 127 0" result="hardAlpha"/>
<feOffset dy="4"/>
<feGaussianBlur stdDeviation="2"/>
<feComposite in2="hardAlpha" operator="out"/>
<feColorMatrix type="matrix" values="0 0 0 0 0 0 0 0 0 0 0 0 0 0 0 0 0 0 0.25 0"/>
<feBlend mode="normal" in2="BackgroundImageFix" result="effect1_dropShadow_861_1078"/>
<feBlend mode="normal" in="SourceGraphic" in2="effect1_dropShadow_861_1078" result="shape"/>
</filter>
</defs>
</svg>
