<svg width="24" height="24" viewBox="0 0 24 24" fill="none" xmlns="http://www.w3.org/2000/svg">
<path d="M18 11C19.49 11 20.87 11.47 22 12.26V8C22 6.89 21.11 6 20 6H16V4C16 2.89 15.11 2 14 2H10C8.89 2 8 2.89 8 4V6H4C2.89 6 2.01 6.89 2.01 8L2 19C2 20.11 2.89 21 4 21H11.68C11.1726 19.9335 10.9436 18.7559 11.0141 17.577C11.0847 16.3981 11.4526 15.2563 12.0836 14.2579C12.7145 13.2596 13.588 12.4373 14.6225 11.8676C15.6571 11.2979 16.819 10.9994 18 11ZM10 4H14V6H10V4Z" fill="#404040"/>
<path d="M18 13C15.24 13 13 15.24 13 18C13 20.76 15.24 23 18 23C20.76 23 23 20.76 23 18C23 15.24 20.76 13 18 13ZM19.65 20.35L17.5 18.2V15H18.5V17.79L20.35 19.64L19.65 20.35Z" fill="#404040"/>
</svg>
