<svg width="24" height="24" viewBox="0 0 24 24" fill="none" xmlns="http://www.w3.org/2000/svg">
<path d="M8 17C8.28334 17 8.521 16.904 8.713 16.712C8.905 16.52 9.00067 16.2827 9 16C9 15.7167 8.904 15.479 8.712 15.287C8.52 15.095 8.28267 14.9993 8 15C7.71667 15 7.479 15.096 7.287 15.288C7.095 15.48 6.99934 15.7173 7 16C7 16.2833 7.096 16.521 7.288 16.713C7.48 16.905 7.71734 17.0007 8 17ZM8 13C8.28334 13 8.521 12.904 8.713 12.712C8.905 12.52 9.00067 12.2827 9 12C9 11.7167 8.904 11.479 8.712 11.287C8.52 11.095 8.28267 10.9993 8 11C7.71667 11 7.479 11.096 7.287 11.288C7.095 11.48 6.99934 11.7173 7 12C7 12.2833 7.096 12.521 7.288 12.713C7.48 12.905 7.71734 13.0007 8 13ZM8 9C8.28334 9 8.521 8.904 8.713 8.712C8.905 8.52 9.00067 8.28267 9 8C9 7.71667 8.904 7.479 8.712 7.287C8.52 7.095 8.28267 6.99934 8 7C7.71667 7 7.479 7.096 7.287 7.288C7.095 7.48 6.99934 7.71734 7 8C7 8.28334 7.096 8.521 7.288 8.713C7.48 8.905 7.71734 9.00067 8 9ZM12 17H16C16.2833 17 16.521 16.904 16.713 16.712C16.905 16.52 17.0007 16.2827 17 16C17 15.7167 16.904 15.479 16.712 15.287C16.52 15.095 16.2827 14.9993 16 15H12C11.7167 15 11.479 15.096 11.287 15.288C11.095 15.48 10.9993 15.7173 11 16C11 16.2833 11.096 16.521 11.288 16.713C11.48 16.905 11.7173 17.0007 12 17ZM12 13H16C16.2833 13 16.521 12.904 16.713 12.712C16.905 12.52 17.0007 12.2827 17 12C17 11.7167 16.904 11.479 16.712 11.287C16.52 11.095 16.2827 10.9993 16 11H12C11.7167 11 11.479 11.096 11.287 11.288C11.095 11.48 10.9993 11.7173 11 12C11 12.2833 11.096 12.521 11.288 12.713C11.48 12.905 11.7173 13.0007 12 13ZM12 9H16C16.2833 9 16.521 8.904 16.713 8.712C16.905 8.52 17.0007 8.28267 17 8C17 7.71667 16.904 7.479 16.712 7.287C16.52 7.095 16.2827 6.99934 16 7H12C11.7167 7 11.479 7.096 11.287 7.288C11.095 7.48 10.9993 7.71734 11 8C11 8.28334 11.096 8.521 11.288 8.713C11.48 8.905 11.7173 9.00067 12 9ZM5 21C4.45 21 3.979 20.804 3.587 20.412C3.195 20.02 2.99934 19.5493 3 19V5C3 4.45 3.196 3.979 3.588 3.587C3.98 3.195 4.45067 2.99934 5 3H19C19.55 3 20.021 3.196 20.413 3.588C20.805 3.98 21.0007 4.45067 21 5V19C21 19.55 20.804 20.021 20.412 20.413C20.02 20.805 19.5493 21.0007 19 21H5Z" fill="#404040"/>
</svg>
