<svg width="24" height="24" viewBox="0 0 24 24" fill="none" xmlns="http://www.w3.org/2000/svg">
<path d="M11.95 18C12.3 18 12.596 17.879 12.838 17.637C13.08 17.395 13.2007 17.0993 13.2 16.75C13.2 16.4 13.0793 16.104 12.838 15.862C12.5967 15.62 12.3007 15.4993 11.95 15.5C11.6 15.5 11.3043 15.621 11.063 15.863C10.8217 16.105 10.7007 16.4007 10.7 16.75C10.7 17.1 10.821 17.396 11.063 17.638C11.305 17.88 11.6007 18.0007 11.95 18ZM12 22C10.6167 22 9.31667 21.7373 8.1 21.212C6.88333 20.6867 5.825 19.9743 4.925 19.075C4.025 18.175 3.31267 17.1167 2.788 15.9C2.26333 14.6833 2.00067 13.3833 2 12C2 10.6167 2.26267 9.31667 2.788 8.1C3.31333 6.88333 4.02567 5.825 4.925 4.925C5.825 4.025 6.88333 3.31267 8.1 2.788C9.31667 2.26333 10.6167 2.00067 12 2C13.3833 2 14.6833 2.26267 15.9 2.788C17.1167 3.31333 18.175 4.02567 19.075 4.925C19.975 5.825 20.6877 6.88333 21.213 8.1C21.7383 9.31667 22.0007 10.6167 22 12C22 13.3833 21.7373 14.6833 21.212 15.9C20.6867 17.1167 19.9743 18.175 19.075 19.075C18.175 19.975 17.1167 20.6877 15.9 21.213C14.6833 21.7383 13.3833 22.0007 12 22ZM12.1 7.7C12.5167 7.7 12.8793 7.83333 13.188 8.1C13.4967 8.36667 13.6507 8.7 13.65 9.1C13.65 9.46667 13.5377 9.79167 13.313 10.075C13.0883 10.3583 12.834 10.625 12.55 10.875C12.1667 11.2083 11.8293 11.575 11.538 11.975C11.2467 12.375 11.1007 12.825 11.1 13.325C11.1 13.5583 11.1877 13.7543 11.363 13.913C11.5383 14.0717 11.7423 14.1507 11.975 14.15C12.225 14.15 12.4377 14.0667 12.613 13.9C12.7883 13.7333 12.9007 13.525 12.95 13.275C13.0167 12.925 13.1667 12.6123 13.4 12.337C13.6333 12.0617 13.8833 11.7993 14.15 11.55C14.5333 11.1833 14.8627 10.7833 15.138 10.35C15.4133 9.91667 15.5507 9.43333 15.55 8.9C15.55 8.05 15.204 7.35433 14.512 6.813C13.82 6.27167 13.016 6.00067 12.1 6C11.4667 6 10.8627 6.13333 10.288 6.4C9.71333 6.66667 9.27567 7.075 8.975 7.625C8.85833 7.825 8.82067 8.03767 8.862 8.263C8.90333 8.48833 9.016 8.659 9.2 8.775C9.43333 8.90833 9.675 8.95 9.925 8.9C10.175 8.85 10.3833 8.70833 10.55 8.475C10.7333 8.225 10.9627 8.03333 11.238 7.9C11.5133 7.76667 11.8007 7.7 12.1 7.7Z" fill="#404040"/>
</svg>
