<svg width="24" height="24" viewBox="0 0 24 24" fill="none" xmlns="http://www.w3.org/2000/svg">
<path d="M12 21.4995C10.6833 21.4995 9.45 21.2495 8.3 20.7495C7.15 20.2495 6.14567 19.5702 5.287 18.7115C4.429 17.8535 3.75 16.8495 3.25 15.6995C2.75 14.5495 2.5 13.3162 2.5 11.9995C2.5 10.6829 2.75 9.44953 3.25 8.29953C3.75 7.14953 4.42933 6.1452 5.288 5.28653C6.14533 4.42853 7.14933 3.74953 8.3 3.24953C9.45067 2.74953 10.684 2.49953 12 2.49953V1.19953C12 0.966195 12.1043 0.812195 12.313 0.737529C12.5217 0.662862 12.7007 0.700195 12.85 0.849529L15.65 3.64953C15.75 3.74953 15.8 3.8662 15.8 3.99953C15.8 4.13286 15.75 4.24953 15.65 4.34953L12.85 7.14953C12.7 7.29953 12.521 7.3372 12.313 7.26253C12.105 7.18786 12.0007 7.03353 12 6.79953V5.49953C10.2 5.49953 8.66667 6.13286 7.4 7.39953C6.13333 8.6662 5.5 10.1995 5.5 11.9995C5.5 13.0995 5.754 14.1205 6.262 15.0625C6.77 16.0045 7.44933 16.7669 8.3 17.3495C8.56667 16.8829 8.96267 16.4869 9.488 16.1615C10.0133 15.8362 10.6173 15.6322 11.3 15.5495C11.25 15.1995 11.1833 14.8495 11.1 14.4995C11.0167 14.1495 10.9167 13.8245 10.8 13.5245C10.6167 13.6745 10.4167 13.7912 10.2 13.8745C9.98333 13.9579 9.75 13.9995 9.5 13.9995C8.95 13.9995 8.47933 13.8035 8.088 13.4115C7.69667 13.0195 7.50067 12.5489 7.5 11.9995V10.9995C7.5 10.8662 7.48733 10.7285 7.462 10.5865C7.43667 10.4445 7.39933 10.3072 7.35 10.1745C7.28333 10.0079 7.30433 9.85353 7.413 9.71153C7.52167 9.56953 7.66733 9.5072 7.85 9.52453C8.2 9.54119 8.58333 9.5912 9 9.67453C9.41667 9.75786 9.80833 9.8912 10.175 10.0745C10.5417 10.2579 10.8543 10.5039 11.113 10.8125C11.3717 11.1212 11.5007 11.5169 11.5 11.9995C11.5 12.1495 11.4873 12.2872 11.462 12.4125C11.4367 12.5379 11.391 12.6669 11.325 12.7995C11.1083 12.6329 10.8917 12.4829 10.675 12.3495C10.4583 12.2162 10.2333 12.0995 10 11.9995C10.2833 12.2162 10.6083 12.5495 10.975 12.9995C11.3417 13.4495 11.6833 13.9829 12 14.5995C12.3333 13.7829 12.75 12.9789 13.25 12.1875C13.75 11.3962 14.3333 10.6669 15 9.99953C14.6167 10.2662 14.25 10.5495 13.9 10.8495C13.55 11.1495 13.2083 11.4662 12.875 11.7995C12.7583 11.6162 12.6667 11.4119 12.6 11.1865C12.5333 10.9612 12.5 10.7322 12.5 10.4995C12.5 9.79953 12.7417 9.20786 13.225 8.72453C13.7083 8.2412 14.3 7.99953 15 7.99953H16C16.2333 7.99953 16.4583 7.97453 16.675 7.92453C16.8917 7.87453 17.0917 7.79953 17.275 7.69953C17.475 7.59953 17.65 7.59953 17.8 7.69953C17.95 7.79953 18.025 7.9412 18.025 8.12453C18.025 8.5412 17.9877 9.02886 17.913 9.58753C17.8383 10.1462 17.6923 10.6795 17.475 11.1875C17.2583 11.6955 16.95 12.1245 16.55 12.4745C16.15 12.8245 15.6333 12.9995 15 12.9995C14.75 12.9995 14.5123 12.9662 14.287 12.8995C14.0617 12.8329 13.8577 12.7412 13.675 12.6245C13.5583 12.9412 13.425 13.3622 13.275 13.8875C13.125 14.4129 13.0083 14.9752 12.925 15.5745C13.5583 15.6912 14.1167 15.9079 14.6 16.2245C15.0833 16.5412 15.45 16.9162 15.7 17.3495C16.4833 16.7995 17.121 16.1079 17.613 15.2745C18.105 14.4412 18.3923 13.5162 18.475 12.4995C18.4917 12.3662 18.55 12.2495 18.65 12.1495C18.75 12.0495 18.8667 11.9995 19 11.9995H21C21.1333 11.9995 21.2543 12.0495 21.363 12.1495C21.4717 12.2495 21.5173 12.3662 21.5 12.4995C21.4333 13.7495 21.1417 14.9245 20.625 16.0245C20.1083 17.1245 19.421 18.0789 18.563 18.8875C17.7043 19.6955 16.7127 20.3329 15.588 20.7995C14.4633 21.2662 13.2673 21.4995 12 21.4995Z" fill="#404040"/>
</svg>
