<svg width="18" height="18" viewBox="0 0 18 18" fill="none" xmlns="http://www.w3.org/2000/svg">
<path d="M1.61111 11.6111H8.27778C8.57246 11.6111 8.85508 11.494 9.06345 11.2857C9.27183 11.0773 9.38889 10.7947 9.38889 10.5V1.61111C9.38889 1.31643 9.27183 1.03381 9.06345 0.825437C8.85508 0.617063 8.57246 0.5 8.27778 0.5H1.61111C1.31643 0.5 1.03381 0.617063 0.825437 0.825437C0.617063 1.03381 0.5 1.31643 0.5 1.61111V10.5C0.5 10.7947 0.617063 11.0773 0.825437 11.2857C1.03381 11.494 1.31643 11.6111 1.61111 11.6111ZM0.5 19.3889C0.5 19.6836 0.617063 19.9662 0.825437 20.1746C1.03381 20.3829 1.31643 20.5 1.61111 20.5H8.27778C8.57246 20.5 8.85508 20.3829 9.06345 20.1746C9.27183 19.9662 9.38889 19.6836 9.38889 19.3889V14.9444C9.38889 14.6498 9.27183 14.3671 9.06345 14.1588C8.85508 13.9504 8.57246 13.8333 8.27778 13.8333H1.61111C1.31643 13.8333 1.03381 13.9504 0.825437 14.1588C0.617063 14.3671 0.5 14.6498 0.5 14.9444V19.3889ZM11.6111 19.3889C11.6111 19.6836 11.7282 19.9662 11.9365 20.1746C12.1449 20.3829 12.4275 20.5 12.7222 20.5H19.3889C19.6836 20.5 19.9662 20.3829 20.1746 20.1746C20.3829 19.9662 20.5 19.6836 20.5 19.3889V11.6111C20.5 11.3164 20.3829 11.0338 20.1746 10.8254C19.9662 10.6171 19.6836 10.5 19.3889 10.5H12.7222C12.4275 10.5 12.1449 10.6171 11.9365 10.8254C11.7282 11.0338 11.6111 11.3164 11.6111 11.6111V19.3889ZM12.7222 8.27778H19.3889C19.6836 8.27778 19.9662 8.16071 20.1746 7.95234C20.3829 7.74397 20.5 7.46135 20.5 7.16667V1.61111C20.5 1.31643 20.3829 1.03381 20.1746 0.825437C19.9662 0.617063 19.6836 0.5 19.3889 0.5H12.7222C12.4275 0.5 12.1449 0.617063 11.9365 0.825437C11.7282 1.03381 11.6111 1.31643 11.6111 1.61111V7.16667C11.6111 7.46135 11.7282 7.74397 11.9365 7.95234C12.1449 8.16071 12.4275 8.27778 12.7222 8.27778Z" fill="#404040"/>
</svg>
