<svg width="44" height="44" viewBox="0 0 44 44" fill="none" xmlns="http://www.w3.org/2000/svg">
<path fill-rule="evenodd" clip-rule="evenodd" d="M44 22C44 34.1506 34.1506 44 22 44C18.48 44 15.1536 43.1728 12.2056 41.7032C11.4269 41.3007 10.5279 41.1967 9.67782 41.4106L4.78062 42.7218C4.2959 42.8511 3.78568 42.8507 3.30118 42.7205C2.81668 42.5904 2.37495 42.335 2.02032 41.9802C1.66569 41.6253 1.41064 41.1834 1.28077 40.6988C1.1509 40.2143 1.15078 39.704 1.28043 39.2194L2.58943 34.3222C2.80233 33.4725 2.69749 32.5744 2.29463 31.7966C0.780217 28.7533 -0.00535768 25.3993 2.75008e-05 22C2.75008e-05 9.8494 9.84942 0 22 0C34.1506 0 44 9.8494 44 22ZM22 11.55C22.4376 11.55 22.8573 11.7238 23.1667 12.0333C23.4762 12.3427 23.65 12.7624 23.65 13.2V13.222C26.0458 13.827 28.05 15.7146 28.05 18.3326C28.05 18.7702 27.8762 19.1899 27.5667 19.4993C27.2573 19.8088 26.8376 19.9826 26.4 19.9826C25.9624 19.9826 25.5427 19.8088 25.2333 19.4993C24.9239 19.1899 24.75 18.7702 24.75 18.3326C24.75 17.4878 23.8128 16.3174 22 16.3174C20.1872 16.3174 19.25 17.4878 19.25 18.3326C19.25 19.1774 20.1872 20.35 22 20.35C25.047 20.35 28.05 22.462 28.05 25.6674C28.05 28.2854 26.0458 30.1752 23.65 30.778V30.8C23.65 31.2376 23.4762 31.6573 23.1667 31.9667C22.8573 32.2762 22.4376 32.45 22 32.45C21.5624 32.45 21.1427 32.2762 20.8333 31.9667C20.5239 31.6573 20.35 31.2376 20.35 30.8V30.778C17.9542 30.1752 15.95 28.2854 15.95 25.6674C15.95 25.2298 16.1239 24.8101 16.4333 24.5007C16.7427 24.1912 17.1624 24.0174 17.6 24.0174C18.0376 24.0174 18.4573 24.1912 18.7667 24.5007C19.0762 24.8101 19.25 25.2298 19.25 25.6674C19.25 26.5122 20.1872 27.6826 22 27.6826C23.8128 27.6826 24.75 26.5122 24.75 25.6674C24.75 24.8226 23.8128 23.65 22 23.65C18.953 23.65 15.95 21.538 15.95 18.3326C15.95 15.7146 17.9542 13.827 20.35 13.222V13.2C20.35 12.7624 20.5239 12.3427 20.8333 12.0333C21.1427 11.7238 21.5624 11.55 22 11.55Z" fill="#66D998"/>
</svg>
