<svg width="18" height="18" viewBox="0 0 18 18" fill="none" xmlns="http://www.w3.org/2000/svg">
<path d="M18 9C18 11.3869 17.0518 13.6761 15.364 15.364C13.6761 17.0518 11.3869 18 9 18C6.61305 18 4.32387 17.0518 2.63604 15.364C0.948212 13.6761 0 11.3869 0 9C0 6.61305 0.948212 4.32387 2.63604 2.63604C4.32387 0.948212 6.61305 0 9 0C11.3869 0 13.6761 0.948212 15.364 2.63604C17.0518 4.32387 18 6.61305 18 9ZM13.5337 5.59125C13.4534 5.51117 13.3577 5.44812 13.2524 5.40587C13.1471 5.36361 13.0344 5.34303 12.921 5.34534C12.8076 5.34765 12.6958 5.37281 12.5923 5.41931C12.4888 5.46582 12.3958 5.53271 12.3187 5.616L8.41162 10.5941L6.057 8.23837C5.89705 8.08933 5.6855 8.0082 5.46691 8.01205C5.24832 8.01591 5.03976 8.10446 4.88518 8.25905C4.73059 8.41364 4.64204 8.6222 4.63818 8.84079C4.63432 9.05938 4.71546 9.27093 4.8645 9.43088L7.84125 12.4087C7.92144 12.4888 8.01693 12.5519 8.12203 12.5942C8.22713 12.6366 8.33968 12.6573 8.45296 12.6552C8.56625 12.6531 8.67795 12.6282 8.78141 12.582C8.88486 12.5358 8.97795 12.4692 9.05512 12.3863L13.5461 6.7725C13.6992 6.61331 13.7838 6.40043 13.7817 6.17958C13.7796 5.95872 13.691 5.74749 13.5349 5.59125H13.5337Z" fill="#404040"/>
</svg>
